# Blender v3.2.1 OBJ File: 'tree.blend'
# www.blender.org
mtllib tree.mtl
o Cube_Cube.001
v -0.153786 -0.002007 0.153786
v -0.028185 6.008025 0.028185
v -0.153786 -0.002007 -0.153786
v -0.028185 6.008025 -0.028185
v 0.153786 -0.002007 0.153786
v 0.028185 6.008025 0.028185
v 0.153786 -0.002007 -0.153786
v 0.028185 6.008025 -0.028185
v 0.000000 7.049436 1.174812
v 0.000000 0.702806 1.174812
v -0.000000 7.049436 -1.174812
v -0.000000 0.702806 -1.174812
v -1.174812 7.049436 0.000000
v -1.174812 0.702807 0.000000
v 1.174812 7.049436 -0.000000
v 1.174812 0.702807 -0.000000
v -0.830718 7.049436 -0.830718
v -0.830717 0.702807 -0.830717
v 0.830718 7.049436 0.830718
v 0.830718 0.702807 0.830718
v -0.830718 7.049436 0.830718
v -0.830717 0.702806 0.830718
v 0.830718 7.049436 -0.830718
v 0.830718 0.702806 -0.830718
v -0.083512 3.003009 0.083512
v -0.083512 3.003009 -0.083512
v 0.083512 3.003009 -0.083512
v 0.083512 3.003009 0.083512
v -0.119523 1.500501 -0.119523
v 0.119523 1.500501 -0.119523
v 0.119523 1.500501 0.119523
v -0.119523 1.500501 0.119523
v -0.054215 4.505517 0.054215
v -0.054215 4.505517 -0.054215
v 0.054215 4.505517 -0.054215
v 0.054215 4.505517 0.054215
v 0.000000 7.049436 -0.000000
v 0.000000 0.702807 0.000000
vt 0.006849 0.998150
vt -0.004175 -0.001299
vt 0.999764 0.003351
vt 1.002520 1.001251
vt 0.006298 0.996192
vt -0.004726 -0.003258
vt 0.999213 0.001393
vt 1.001969 0.999293
vt 0.504134 0.998552
vt 0.497244 -0.000123
vt 0.999213 0.002202
vt 1.001969 1.000102
vt 0.005694 0.996601
vt -0.005329 -0.002850
vt 0.998610 0.001801
vt 1.001365 0.999701
vt 0.006298 0.997002
vt -0.004726 -0.002448
vt 0.672035 0.762329
vt 0.657406 0.996588
vt 0.405118 0.996588
vt 0.390476 0.762330
vt 0.672028 0.771008
vt 0.657390 1.011546
vt 0.405103 1.011546
vt 0.390469 0.771008
vt 0.672028 0.769867
vt 0.657391 1.009580
vt 0.405103 1.009580
vt 0.390470 0.769868
vt 0.672025 0.768726
vt 0.657382 1.007613
vt 0.405094 1.007613
vt 0.390466 0.768726
vt 0.125000 0.500000
vt 0.375000 0.500000
vt 0.375000 0.750000
vt 0.125000 0.750000
vt 0.625000 0.500000
vt 0.875000 0.500000
vt 0.875000 0.750000
vt 0.625000 0.750000
vt 0.729256 0.293102
vt 0.713554 0.530983
vt 0.348942 0.530983
vt 0.333243 0.293101
vt 0.729256 0.293829
vt 0.713556 0.531942
vt 0.348943 0.531942
vt 0.333243 0.293829
vt 0.729256 0.294557
vt 0.713555 0.532902
vt 0.348943 0.532902
vt 0.333243 0.294557
vt 0.729258 0.289020
vt 0.713559 0.525605
vt 0.348947 0.525605
vt 0.333244 0.289021
vt 0.770531 -0.002399
vt 0.291970 -0.002399
vt 0.770530 0.002801
vt 0.291969 0.002801
vt 0.770531 0.002117
vt 0.291970 0.002117
vt 0.770531 0.001434
vt 0.291970 0.001434
vn 1.0000 0.0000 -0.0000
vn 0.0000 0.0000 1.0000
vn -0.7071 0.0000 0.7071
vn 0.7071 0.0000 0.7071
vn -0.9999 0.0173 0.0000
vn 0.0000 0.0173 -0.9998
vn 0.9999 0.0173 0.0000
vn 0.0000 0.0173 0.9998
vn 0.0000 -1.0000 0.0000
vn 0.0000 1.0000 0.0000
vn 0.0000 0.0240 0.9997
vn 0.9997 0.0240 0.0000
vn 0.0000 0.0240 -0.9997
vn -0.9997 0.0240 0.0000
vn -0.9997 0.0228 0.0000
vn 0.0000 0.0228 -0.9997
vn 0.9997 0.0228 0.0000
vn 0.0000 0.0228 0.9997
vn 0.0000 0.0195 0.9998
vn 0.9998 0.0195 0.0000
vn 0.0000 0.0195 -0.9998
vn -0.9998 0.0195 0.0000
usemtl PineTreeLeaves
s off
f 9/1/1 10/2/1 12/3/1 11/4/1
f 13/5/2 14/6/2 16/7/2 15/8/2
f 37/9/3 38/10/3 20/11/3 19/12/3
f 21/13/4 22/14/4 24/15/4 23/16/4
f 17/17/3 18/18/3 38/10/3 37/9/3
usemtl Material.001
f 33/19/5 2/20/5 4/21/5 34/22/5
f 34/23/6 4/24/6 8/25/6 35/26/6
f 35/27/7 8/28/7 6/29/7 36/30/7
f 36/31/8 6/32/8 2/33/8 33/34/8
f 3/35/9 7/36/9 5/37/9 1/38/9
f 8/39/10 4/40/10 2/41/10 6/42/10
f 31/43/11 28/44/11 25/45/11 32/46/11
f 30/47/12 27/48/12 28/49/12 31/50/12
f 29/51/13 26/52/13 27/53/13 30/54/13
f 32/55/14 25/56/14 26/57/14 29/58/14
f 1/59/15 32/55/15 29/58/15 3/60/15
f 3/61/16 29/51/16 30/54/16 7/62/16
f 7/63/17 30/47/17 31/50/17 5/64/17
f 5/65/18 31/43/18 32/46/18 1/66/18
f 28/44/19 36/31/19 33/34/19 25/45/19
f 27/48/20 35/27/20 36/30/20 28/49/20
f 26/52/21 34/23/21 35/26/21 27/53/21
f 25/56/22 33/19/22 34/22/22 26/57/22
